<?xml version="1.0" encoding="UTF-8"?>
<!DOCTYPE svg PUBLIC "-//W3C//DTD SVG 1.1//EN" "http://www.w3.org/Graphics/SVG/1.1/DTD/svg11.dtd">
<!-- Creator: CorelDRAW 2019 (64-Bit) -->
<svg xmlns="http://www.w3.org/2000/svg" xml:space="preserve" width="33.0729mm" height="7.9376mm" version="1.1" style="shape-rendering:geometricPrecision; text-rendering:geometricPrecision; image-rendering:optimizeQuality; fill-rule:evenodd; clip-rule:evenodd"
viewBox="0 0 996.29 239.11"
 xmlns:xlink="http://www.w3.org/1999/xlink"
 xmlns:xodm="http://www.corel.com/coreldraw/odm/2003">
 <defs>
  <style type="text/css">
   <![CDATA[
    .fil0 {fill:#00334E;fill-rule:nonzero}
   ]]>
  </style>
 </defs>
 <g id="Layer_x0020_1">
  <metadata id="CorelCorpID_0Corel-Layer"/>
  <g>
   <path id="Logo_x0020_M" class="fil0" d="M520.56 237.8l0.01 0 -0.01 0zm47.43 -74.22l90.53 -0.02 91.57 -0.02 0.32 0 0.61 0 0 0 -183.03 0.03zm-0.03 2.31l164.13 -0.03 -164.13 0.03zm182.14 -0.03l0.89 0 -0.89 0zm1.2 -2.31c4.19,1.48 8.1,3.84 11.62,6.84 11.92,6.42 19.86,17.93 19.86,31.06 0,4.79 -1.06,9.36 -2.97,13.55 -2.84,13.64 -14.3,24.4 -38.48,23.8 -50.8,-1.24 -147.55,0.94 -210.8,0.11 -3.43,-0.05 -6.74,-0.3 -9.96,-1.11l-0.01 -0c-8.01,-2.02 -15.47,-7.46 -22.62,-21.53l-72.11 -116.66 -53.67 87.91c-26.83,46.73 -102.12,52.86 -129.39,6.32l-56.26 -95.96 -84.82 139.06 -101.7 0.57 121.6 -204.18c25.75,-43.29 95.2,-44.05 122.47,-1.53l60.59 95 58.85 -94.81c26.4,-42.52 95.64,-42.71 122.03,-0.19l82.44 131.78c0.39,0.79 42.66,0.31 90.48,-0.02l0.05 0c31.6,-0.21 65.61,-0.36 91.57,-0.03l0.32 0 0.61 0.01 0.28 0zm122.01 35.31c0,-15.34 -14.22,-27.77 -31.77,-27.77 -17.54,0 -31.77,12.43 -31.77,27.77 0,15.34 14.22,27.77 31.77,27.77 17.54,0 31.77,-12.43 31.77,-27.77zm71.47 0c0,-10.55 -9.78,-19.1 -21.84,-19.1 -12.06,0 -21.84,8.55 -21.84,19.1 0,10.55 9.78,19.1 21.84,19.1 12.06,0 21.84,-8.55 21.84,-19.1zm51.52 -0.15c0,-5.75 -5.33,-10.41 -11.91,-10.41 -6.58,0 -11.91,4.66 -11.91,10.41 0,5.75 5.33,10.42 11.91,10.42 6.58,0 11.91,-4.66 11.91,-10.42z"/>
  </g>
 </g>
</svg>
